<?xml version="1.0" standalone="no"?>
<!DOCTYPE svg PUBLIC "-//W3C//DTD SVG 20010904//EN"
 "http://www.w3.org/TR/2001/REC-SVG-20010904/DTD/svg10.dtd">
<svg version="1.0" xmlns="http://www.w3.org/2000/svg"
 width="462.000000pt" height="462.000000pt" viewBox="0 0 462.000000 462.000000"
 preserveAspectRatio="xMidYMid meet">
<metadata>
Created by potrace 1.16, written by Peter Selinger 2001-2019
</metadata>
<g transform="translate(0.000000,462.000000) scale(0.100000,-0.100000)"
fill="#000000" stroke="none">
<path d="M1485 3847 c-16 -5 -31 -11 -33 -12 -1 -1 11 -29 27 -61 16 -32 58
-126 94 -209 36 -82 82 -186 102 -230 20 -44 50 -111 65 -150 15 -38 47 -110
70 -160 23 -49 66 -146 95 -215 29 -69 68 -159 87 -200 19 -41 57 -129 84
-195 26 -66 70 -165 97 -220 66 -134 134 -299 202 -485 38 -106 79 -198 139
-317 31 -62 74 -157 95 -210 21 -54 62 -147 90 -208 l50 -110 311 -3 c170 -1
310 0 310 2 0 5 -93 219 -137 316 -17 36 -76 173 -133 305 -56 132 -129 296
-162 365 -55 114 -134 328 -125 336 4 5 118 -57 182 -98 57 -36 154 -144 195
-216 57 -102 59 -104 60 -50 0 63 8 82 27 67 8 -7 13 -8 11 -3 -1 5 10 22 25
38 15 16 25 31 23 34 -9 9 146 152 165 152 5 0 9 4 9 10 0 5 11 21 25 35 14
14 23 25 19 25 -3 0 -1 6 5 14 10 12 8 13 -9 9 -28 -7 -40 12 -33 49 5 25 3
28 -18 26 -13 -2 -24 2 -24 9 0 16 -25 41 -25 25 0 -9 -6 -9 -26 0 -18 8 -24
17 -20 31 3 13 0 17 -10 13 -8 -3 -14 -1 -14 4 0 6 5 10 10 10 6 0 10 7 10 15
0 27 -17 16 -33 -22 -9 -21 -14 -28 -11 -15 3 12 1 22 -4 22 -15 0 -55 -88
-49 -105 4 -9 1 -12 -8 -9 -18 7 -25 -19 -34 -124 l-8 -87 -2 92 c-1 91 -2 94
-46 169 -25 41 -45 77 -45 79 0 2 -31 55 -69 117 -37 62 -130 218 -206 346
l-137 232 -175 0 c-156 0 -174 2 -180 18 -15 41 -134 317 -197 457 -13 28 -47
105 -76 173 l-53 122 -261 1 c-144 0 -268 2 -276 3 -8 2 -28 -1 -45 -7z m1905
-1511 c0 -3 -4 -8 -10 -11 -5 -3 -10 -1 -10 4 0 6 5 11 10 11 6 0 10 -2 10 -4z"/>
<path d="M4075 3070 c-135 -3 -199 -8 -181 -13 23 -7 27 -10 15 -18 -10 -6 -2
-9 26 -10 l40 -1 -38 -8 c-49 -9 -67 -26 -38 -35 25 -7 27 -20 6 -29 -11 -4
-15 -21 -15 -64 0 -60 15 -91 50 -105 11 -4 11 -6 -4 -6 -17 -1 -18 -8 -11
-98 6 -86 1 -171 -20 -365 -5 -42 -3 -48 13 -48 17 0 18 -5 11 -47 -12 -70
-11 -83 6 -83 8 0 15 -9 15 -20 0 -11 7 -23 15 -26 12 -5 12 -8 0 -20 -21 -21
-25 -17 -26 24 -1 27 -6 14 -20 -53 -11 -49 -18 -102 -16 -117 2 -16 0 -28 -5
-28 -16 0 -9 -227 8 -270 13 -32 15 -58 9 -125 -4 -47 -10 -85 -15 -85 -9 0
-24 -36 -41 -100 -7 -25 -23 -58 -36 -73 -13 -16 -23 -39 -23 -52 0 -12 -6
-25 -14 -28 -8 -3 -18 -21 -22 -39 l-8 -33 -7 30 c-4 17 -7 -34 -8 -112 l-1
-143 275 0 275 0 0 118 c2 419 -1 2086 -3 2086 -1 1 -96 -1 -212 -4z"/>
<path d="M3634 2249 c-5 -9 -18 -19 -28 -23 -15 -5 -17 -9 -8 -18 9 -9 17 -7
33 10 11 13 19 28 16 35 -2 8 -6 7 -13 -4z"/>
<path d="M1220 1838 c-34 -84 -87 -214 -117 -288 -74 -187 -133 -314 -149
-323 -8 -4 -14 -13 -14 -20 0 -8 4 -6 11 3 9 12 9 11 4 -5 -4 -11 -10 -28 -13
-38 -4 -15 -7 -16 -14 -5 -5 8 -6 2 -2 -16 4 -16 3 -27 -2 -23 -5 3 -10 -8
-11 -24 -3 -41 -31 -91 -46 -82 -7 4 -5 -2 3 -12 14 -17 13 -18 -2 -12 -19 7
-21 2 -10 -26 6 -13 34 28 111 160 237 406 370 555 610 687 90 50 275 127 354
148 26 6 47 16 47 20 0 4 -157 8 -349 8 l-349 0 -62 -152z"/>
<path d="M3771 1194 c0 -11 3 -14 6 -6 3 7 2 16 -1 19 -3 4 -6 -2 -5 -13z"/>
<path d="M268 933 c7 -3 16 -2 19 1 4 3 -2 6 -13 5 -11 0 -14 -3 -6 -6z"/>
<path d="M628 923 c7 -3 16 -2 19 1 4 3 -2 6 -13 5 -11 0 -14 -3 -6 -6z"/>
<path d="M242 895 l-12 -25 263 1 c155 0 254 4 242 9 -11 5 -30 9 -42 9 -13 1
-23 6 -23 12 0 8 -4 8 -12 1 -13 -10 -98 -15 -259 -15 -64 0 -92 4 -110 16
-31 22 -34 22 -47 -8z"/>
<path d="M318 913 c6 -2 18 -2 25 0 6 3 1 5 -13 5 -14 0 -19 -2 -12 -5z"/>
<path d="M770 893 c0 -18 6 -23 25 -23 17 0 25 6 25 17 0 13 -3 14 -12 5 -9
-9 -14 -7 -24 6 -12 16 -13 15 -14 -5z"/>
</g>
</svg>
