<?xml version="1.0" encoding="utf-8"?>
<!-- Generator: Adobe Illustrator 23.0.3, SVG Export Plug-In . SVG Version: 6.00 Build 0)  -->
<svg version="1.1" id="Layer_1" xmlns="http://www.w3.org/2000/svg" xmlns:xlink="http://www.w3.org/1999/xlink" x="0px" y="0px"
	 viewBox="0 0 32 32" style="enable-background:new 0 0 32 32;" xml:space="preserve">
<style type="text/css">
	.st0{clip-path:url(#SVGID_2_);}
	.st1{clip-path:url(#SVGID_4_);}
</style>
<g>
	<g>
		<path d="M20,28c-0.1806641,0-0.3613281-0.0488281-0.5214844-0.1464844l-18-11C1.1816406,16.6713867,1,16.3481445,1,16
			s0.1816406-0.6713867,0.4785156-0.8535156l18-11c0.3095703-0.1889648,0.6943359-0.1958008,1.0107422-0.0185547
			C20.8046875,4.3046875,21,4.6381836,21,5v6.1108398c0,0.3481445-0.1816406,0.6713867-0.4785156,0.8530273L13.9179688,16
			l6.6035156,4.0351563C20.8183594,20.2167969,21,20.5405273,21,20.8886719V27c0,0.3618164-0.1953125,0.6953125-0.5107422,0.8720703
			C20.3369141,27.9575195,20.1679688,28,20,28z M3.9179688,16L19,25.2167969V21.449707l-7.5214844-4.5961914
			C11.1816406,16.671875,11,16.3486328,11,16c0-0.3481445,0.1816406-0.6713867,0.4785156-0.8530273L19,10.5498047V6.7832031
			L3.9179688,16z"/>
	</g>
	<g>
		<g>
			<path d="M30,28c-0.1806641,0-0.3613281-0.0488281-0.5214844-0.1464844l-18-11C11.1816406,16.6713867,11,16.3481445,11,16
				s0.1816406-0.6713867,0.4785156-0.8535156l18-11c0.3095703-0.1889648,0.6953125-0.1958008,1.0107422-0.0185547
				C30.8046875,4.3046875,31,4.6381836,31,5v22c0,0.3618164-0.1953125,0.6953125-0.5107422,0.8720703
				C30.3369141,27.9575195,30.1679688,28,30,28z M13.9179688,16L29,25.2167969V6.7832031L13.9179688,16z"/>
		</g>
	</g>
</g>
</svg>
